<?xml version="1.0" encoding="UTF-8" standalone="no"?>
<!-- Generator: Adobe Illustrator 16.0.0, SVG Export Plug-In . SVG Version: 6.00 Build 0)  -->

<svg
   xmlns:dc="http://purl.org/dc/elements/1.1/"
   xmlns:cc="http://creativecommons.org/ns#"
   xmlns:rdf="http://www.w3.org/1999/02/22-rdf-syntax-ns#"
   xmlns:svg="http://www.w3.org/2000/svg"
   xmlns="http://www.w3.org/2000/svg"
   xmlns:sodipodi="http://sodipodi.sourceforge.net/DTD/sodipodi-0.dtd"
   xmlns:inkscape="http://www.inkscape.org/namespaces/inkscape"
   version="1.1"
   id="Capa_1"
   x="0px"
   y="0px"
   width="593.553px"
   height="593.553px"
   viewBox="0 0 593.553 593.553"
   style="enable-background:new 0 0 593.553 593.553;"
   xml:space="preserve"
   inkscape:version="0.48.4 r9939"
   sodipodi:docname="opossum-mammal-animal-silhouette.svg"><metadata
     id="metadata43"><rdf:RDF><cc:Work
         rdf:about=""><dc:format>image/svg+xml</dc:format><dc:type
           rdf:resource="http://purl.org/dc/dcmitype/StillImage" /><dc:title></dc:title></cc:Work></rdf:RDF></metadata><defs
     id="defs41" /><sodipodi:namedview
     pagecolor="#ffffff"
     bordercolor="#666666"
     borderopacity="1"
     objecttolerance="10"
     gridtolerance="10"
     guidetolerance="10"
     inkscape:pageopacity="0"
     inkscape:pageshadow="2"
     inkscape:window-width="1320"
     inkscape:window-height="747"
     id="namedview39"
     showgrid="false"
     inkscape:zoom="0.39760562"
     inkscape:cx="296.77649"
     inkscape:cy="296.77649"
     inkscape:window-x="46"
     inkscape:window-y="21"
     inkscape:window-maximized="1"
     inkscape:current-layer="Capa_1" /><g
     id="g3"><g
       id="g5"><path
         d="M587.084,160.075c-14.978-0.661-29.947-1.465-44.908-2.407c-1.734-0.11-3.681-1.073-5.022-2.232    c-1.824-1.571-3.815-2.101-5.916-2.26c-0.192-0.894-0.384-1.787-0.575-2.685c0.102-0.175,0.208-0.351,0.293-0.535    c0.331-0.734,0.429-2.023,0-2.525c-0.33-0.392-0.971-0.518-1.628-0.637c-2.297-4.361-6.756-7.356-11.607-8.523    c0.396-0.171,0.82-0.351,1.289-0.555c-2.007-2.579-3.822-5.035-5.817-7.332c-0.294-0.338-1.461,0.074-2.22,0.139    c0.114,0.874,0.114,1.779,0.367,2.611c0.339,1.122,0.869,2.183,1.317,3.272c-0.09-0.02-0.184-0.041-0.273-0.065    c-0.787-0.616-1.636-1.179-2.541-1.665c-0.906-0.486-1.841-0.877-2.791-1.188c-2.591-3.815-4.562-4.851-8.511-3.803    c-1.562-2.276-3.656-4.219-6.223-5.589c-5.663-3.027-12.366-2.611-17.609,0.469c-0.518-0.355-1.061-0.686-1.627-0.992    c-1.987-1.061-4.101-1.693-6.234-1.946c0.31-1.371,0.632-2.799,0.987-4.354c-1.322-0.057-1.897-0.265-2.203-0.062    c-2.053,1.355-4.076,2.562-6.345,0.457c-1.66-1.538-3.158-3.28-4.957-4.631c-1.249-0.934-2.832-1.55-4.361-1.95    c-2.053-0.534-4.199-0.697-6.292-1.073c-0.444-0.078-0.975-0.669-1.244-0.547c-4.174,1.914-6.989-0.502-9.837-3.362    c-1.392,1.909-2.648,3.574-3.839,5.288c-1.702,2.448-2.812,2.297-4.909,0.359c-2.558-2.366-5.536-4.288-8.376-6.34    c-0.285-0.208-0.971-0.131-1.33,0.069c-3.758,2.084-6.683-0.082-9.045-2.33c-3.423-3.256-7.234-4.749-11.82-4.786    c-0.444,6.034-2.705,6.981-8.294,4.117c-3.146-1.612-6.61-2.611-10.164-3.974c-0.432,0.616-0.95,1.359-1.909,2.73    c-4.435-1.722-9.009-3.493-14.067-5.455c0.171,2.729,0.338,5.341,0.465,7.336c-4.271-1.575-8.589-2.991-12.75-4.766    c-3.023-1.289-5.843-3.056-9.09-4.794c-0.127,0.167-0.719,0.951-1.759,2.321c-1.819-2.13-3.248-4.243-5.108-5.847    c-1.396-1.199-3.346-1.758-5.059-2.583c-0.968-0.469-1.967-0.877-2.93-1.354c-1.016-0.506-2.004-1.061-3.003-1.595    c-0.208,0.249-0.416,0.498-0.624,0.75c0.403,1,0.812,2.003,1.272,3.15c-2.093,1.62-3.509,0.526-4.732-1.077    c-1.077-1.408-1.918-3.011-3.076-4.341c-1.845-2.113-3.881-4.031-6.695-2.46c-1.812-1.95-3.375-3.639-4.938-5.325    c-0.285,0.212-0.571,0.429-0.856,0.641c0.062,1.106,0.118,2.211,0.249,4.558c-3.876-1.718-7.442-2.713-10.286-4.729    c-2.742-1.938-4.741-4.928-7.042-7.425c-0.555,0.408-0.894,0.534-0.901,0.677c-0.196,5.381-0.698,6.389-6.345,6.858    c-4.439,0.367-8.976-0.42-13.464-0.73c-0.82-0.057-2.04-0.706-2.375-0.375c-3.403,3.354-7.548,0.673-11.183,1.558    c-3.285,0.804-6.418,2.236-9.694,3.089c-1.473,0.383-3.149,0.135-4.712-0.012c-1.514-0.143-3.015-0.478-4.504-0.808    c-3.329-0.734-5.896,0.759-8.315,2.746c-0.273,0.224-0.6,0.44-0.934,0.526c-6.137,1.571-12.22,3.411-18.425,4.606    c-9.551,1.84-18.136,5.728-26.132,11.109c-0.38,0.257-0.881,0.682-0.91,1.061c-0.518,7.161-7.226,8.005-11.665,10.212    c-3.753,1.864-7.299,3.166-10.612,6.222c-4.872,4.488-11.191,7.36-16.614,11.31c-2.583,1.881-4.268,4.969-6.797,6.956    c-3.807,2.987-8.172,5.263-11.979,8.254c-4.002,3.146-7.821,6.585-11.351,10.253c-2.652,2.758-4.892,5.969-6.957,9.204    c-0.792,1.24-0.392,3.187-0.93,4.664c-0.388,1.069-1.546,2.778-2.158,2.693c-3.089-0.424-3.823,1.689-3.59,3.635    c0.392,3.313,0.049,6.006-2.836,8.046c-0.367,0.261-0.375,1.028-0.689,1.991c1.089-0.257,1.783-0.42,3.007-0.71    c-0.653,0.886-0.934,1.379-1.318,1.771c-1.722,1.734-3.513,3.276-1.407,6.108c0.379,0.51-0.922,2.974-2.007,3.721    c-2.917,1.999-5.663,4.002-6.785,7.544c-0.159,0.502-0.18,1.048-0.396,2.366c1.697-1.624,2.799-2.685,3.905-3.741    c0.331,0.245,0.657,0.494,0.987,0.738c-4.19,6.854-11.436,11.869-12.66,20.755l4.492-4.142c0.318,0.18,0.632,0.359,0.951,0.539    c-1.387,2.848-2.518,5.863-4.231,8.503c-1.718,2.644-3.921,4.843,0.118,7.352c0.485,0.302,0.604,2.224,0.147,2.856    c-3.501,4.863-1.408,10.225-1.877,16.132c1.542-1.689,2.591-2.839,4.472-4.904c0.355,2.105,1.048,3.484,0.681,4.467    c-2.378,6.41-0.889,12.966-1.077,19.458c-0.069,2.424-0.265,5.084-1.301,7.197c-5.349,10.946-12.893,20.225-22.13,28.185    c-6.948,5.985-13.436,12.37-19.478,19.38c-8.58,9.947-14.823,21.126-21.31,32.383c-3.848,6.675-6.328,13.701-8.181,20.771    c-2.236,8.531-2.717,17.589-3.305,26.467c-0.755,11.384,2.795,22.122,5.969,32.885c1.849,6.263,3.252,12.656,4.941,18.973    c0.396,1.48,0.877,3.047,1.738,4.283c4.749,6.818,9.702,13.497,14.439,20.323c2.848,4.104,5.308,8.478,8.193,12.558    c1.391,1.971,3.219,3.696,5.083,5.251c3.835,3.199,7.634,6.5,11.799,9.217c5.994,3.913,12.326,7.308,18.474,10.992    c6.39,3.826,13.738,3.578,20.69,5.051c8.405,1.783,15.851-0.743,23.28-4.386c6.524-3.199,8.046-8.973,8.233-15.149    c0.155-5.011-2.652-9.282-6.838-11.901c-1.616-1.012-4.831-0.812-6.593,0.151c-1.607,0.877-2.587,3.435-3.207,5.446    c-0.653,2.122,0.249,5.695-0.938,6.471c-2.509,1.637-5.924,2.485-8.988,2.546c-8.638,0.172-15.757-3.737-22.065-9.371    c-1.048-0.938-2.407-1.539-3.644-2.257c-5.504-3.187-10.179-7.201-13.896-12.473c-3.562-5.051-7.756-9.653-11.448-14.622    c-2.66-3.583-5.675-7.156-7.271-11.225c-4.019-10.24-7.748-20.645-10.751-31.22c-1.758-6.193-2.489-12.84-2.603-19.299    c-0.139-7.69,1.375-15.247,3.007-22.885c2.534-11.836,9.825-20.959,15.096-31.199c1.873-3.636,5.724-6.324,8.898-9.196    c7.213-6.536,14.395-13.126,21.918-19.291c5.5-4.508,11.42-8.526,17.356-12.464c3.313-2.195,6.928-4.056,10.628-5.5    c1.669-0.652,3.917,0.347,5.827,0.069c1.102-0.159,2.015-1.428,3.072-2.097c1.702-1.077,3.452-2.069,5.178-3.097    c0.277,0.253,0.559,0.506,0.836,0.759c-0.416,1.289-0.833,2.574-1.24,3.843c1.644-0.787,3.125-1.497,4.651-2.231    c0.139,4.545,0.233,7.711,0.327,10.873c0.351,0.045,0.706,0.094,1.057,0.139c1.404-1.31,2.783-2.656,4.219-3.929    c3.774-3.346,6.61-2.302,8.739,2.252c2.371,5.063,3.411,10.686,8.131,14.807c4.476,3.908,1.918,9.29,0.498,14.088    c-0.739,2.493-1.758,4.994-1.942,7.54c-0.494,6.891,2.824,11.975,8.258,15.94c2.179,1.591,3.374,0.845,4.549-1.175    c1.946-3.346,2.538-6.643,0.363-10.131c-0.555-0.89-0.816-1.958-1.232-2.999c1.566-0.065,3.847,0.359,4.182-0.265    c1.094-2.032,1.763-4.402,2.069-6.716c0.596-4.492,1.713-5.59,6.32-5.153c1.053,0.098,2.064,0.588,3.121,0.759    c2.416,0.392,4.517,0.583,4.521-3.052c0-2.195,0.844-4.406,1.432-6.577c0.812-2.994,3.146-3.133,5.704-2.962    c2.599,0.176,5.243,0.465,7.801,0.159c3.333-0.4,6.055-1.93,7.254-5.5c0.383-1.139,1.571-2.012,2.636-3.305    c-0.804-0.551-1.652-0.938-2.228-1.579c-0.58-0.648-1.286-1.562-1.245-2.321c0.273-4.798,5.732-9.029,10.567-8.34    c0.351,0.049,0.738,0.326,1.032,0.245c3.097-0.877,6.173-1.824,9.266-2.709c0.877-0.253,1.787-0.498,2.688-0.535    c1.873-0.073,3.782,0.204,5.623-0.036c3.178-0.42,6.226-1.294,9.216,0.979c1.661,1.261,3.219,0.697,4.264-1.461    c1.885-3.9,4.174-4.998,8.384-4.378c0.628,0.094,1.485,0.489,1.702,0.979c0.188,0.424-0.294,1.24-0.632,1.787    c-0.698,1.13-1.498,2.194-2.301,3.354c3.88-1.24,7.185-2.098,10.318-3.37c2.081-0.845,3.811-2.844,5.912-3.276    c1.624-0.335,3.737,0.693,5.349,1.611c2.134,1.216,3.721,1.82,6.12,0.139c2.13-1.497,4.929-2.231,7.54-2.741    c0.747-0.147,2.644,1.619,2.701,2.587c0.037,0.607,0.049,1.216,0.078,1.823c-1.089,3.383-1.228,7.115-0.237,10.763    c0.151,0.56,0.306,1.118,0.457,1.682c0.004,0.767,0.008,1.538,0.016,2.301c0.049,0.024,0.106,0.049,0.159,0.073    c-0.171,4.231-0.343,8.458-0.51,12.689c-0.792,0.665-1.799,1.175-2.746,1.583c-2.521,1.093-5.141,1.971-6.687,2.55    c-2.276,0.429-3.558,0.669-4.839,0.905c0.6,0.979,1.204,1.959,2.346,3.815c-0.188,1.733-1.747,3.524-4.362,4.712    c-4.304,1.95-5.614,4.011-4.378,6.442c1.139,2.24,4.876,2.162,8.385,0.371c4.834-2.468,9.816-4.671,14.823-6.776    c2.705-1.139,6.728,1.313,7.711,5.022c0.951,3.59,3.007,3.664,5.589,2.448c2.697-1.273,5.067-3.538,7.858-4.219    c3.04-0.743,6.446-0.494,9.616-0.078c4.655,0.616,8.479,4.17,13.529,3.9c2.481-0.13,4.121-0.958,5.137-3.101    c1.514-3.187,3.75-3.312,6.435-1.583c2.607,1.677,5.092,3.578,7.829,5.002c1.302,0.678,3.064,0.474,4.615,0.669    c-0.144-1.272-0.217-2.558-0.441-3.818c-0.958-5.369-4.854-8.168-8.723-11c-0.127-3.039-2.158-6.218-5.255-6.789    c-0.616-0.82-1.392-1.555-2.297-2.154c-4.831-3.198-7.234-8.698-7.304-14.264c0.641-0.236,1.232-0.587,1.771-1.004    c3.778,1.347,7.165,3.623,10.054,6.646c0.452,0.723,0.873,1.359,1.334,1.963c2.823,3.68,5.573,7.441,8.687,10.869    c1.407,1.55,3.41,3.272,5.324,3.635c0.6,0.931,1.473,1.763,2.685,2.412c0.167,0.089,0.33,0.15,0.498,0.228    c0.971,1.686,2.591,2.991,4.594,3.407c1.444,0.302,2.893,0.6,4.341,0.901c2.016,0.421,4.039-0.04,5.639-1.13    c1.146,0.596,2.289,1.216,3.428,1.853c1.644,0.918,3.884,0.808,5.858,1.089c1.522,0.217,3.056,0.339,4.59,0.449    c0.649,0.045,1.481,0.204,1.954-0.062c0.233,0.114,0.466,0.213,0.698,0.298c0.285,0.204,0.588,0.404,0.926,0.584    c8.16,4.357,14.917-8.295,6.761-12.652c-0.33-0.176-0.661-0.318-0.983-0.44c-0.281-0.204-0.579-0.4-0.914-0.575    c-0.163-0.086-0.326-0.159-0.485-0.229c-0.081-0.144-0.163-0.286-0.253-0.425c-0.547-1.86-1.555-3.545-2.974-5.006    c-0.09-2.162-1.184-4.276-3.681-5.61c-1.812-0.967-3.554-1.093-5.08-0.661c-0.579-1.081-1.488-2.06-2.803-2.819    c-1.366-0.791-2.737-1.578-4.104-2.37l0.258-0.62l-2.424-1.298c-2.428-2.044-5.255-3.618-8.458-4.63    c2.848-1.991,4.741-4.606,8.303-2.555c0.302,0.176,0.689,0.351,1.016,0.314c4.183-0.49,8.467-0.616,12.489-1.705    c2.057-0.56,3.574-2.946,5.451-4.358c2.289-1.722,4.251-3.541,4.427-6.675c0.036-0.645,0.522-1.692,0.991-1.812    c2.941-0.746,3.704-3.137,4.876-5.479c0.979-1.962,2.655-1.321,3.573,0.352c0.878,1.595,1.901,3.211,3.75,2.089    c0.926-0.563,1.444-2.469,1.437-3.762c-0.013-3.093,1.954-4.847,4.088-6.21c2.027-1.297,3.215,0.155,3.855,2.191    c1.497,4.745,1.534,4.725,6.267,2.962c1.804-0.673,3.623-1.305,5.438-1.942c1.808-0.632,2.934-0.273,4.085,1.583    c1.672,2.697,4.002,4.978,5.993,7.482c1.416,1.783,2.656,3.709,4.121,5.447c0.819,0.979,2.04,1.611,2.893,2.57    c1.86,2.089,3.623,4.264,5.377,6.442c1.909,2.374,3.513,5.06,5.7,7.136c4.394,4.178,8.796,8.479,13.77,11.881    c3.681,2.518,8.278,3.696,12.465,5.468c0.738,0.313,1.477,0.624,2.215,0.938c1.89,0.808,3.774,1.632,5.676,2.415    c0.652,0.27,1.403,0.322,2.016,0.648c5.173,2.758,12.321,2.13,16.491-1.791c0.999-0.938,1.521-2.652,1.767-4.092    c1.665-9.698,3.207-19.421,4.762-29.136c0.146-0.93,0.069-1.893,0.171-2.831c0.42-3.864,0.869-7.728,1.318-11.587    c0.069-0.592,0.42-1.249,0.257-1.747c-0.281-0.849-0.457-1.693-0.559-2.529c1.13-6.226,2.264-12.452,3.395-18.678    c4.079-1.893,5.01-5.671,5.891-9.506c0.184-0.804-0.053-2.187,0.352-2.383c3.827-1.861,2.231-6.083,3.966-8.841    c0.542-0.861,0.175-2.24,0.473-3.317c0.339-1.22,0.861-2.411,1.474-3.521c0.575-1.044,1.432-1.93,2.048-2.954    c1.95-3.244,1.555-6.345-0.041-9.739c-1.004-2.142-0.6-4.467,1.853-6.242c3.904-2.832,4.79-7.242,5.81-11.763    c0.792-3.513,1.42-7.629,5.618-9.461c4.619-2.02,9.037-4.541,13.741-6.308c3.587-1.347,7.581-1.571,11.229-2.799    c8.503-2.86,13.578-9.249,16.679-17.356C594.571,162.89,591.702,160.278,587.084,160.075z M532.188,157.602    c-0.106-0.494-0.212-0.987-0.318-1.485c0.27,0.261,0.539,0.526,0.816,0.795C532.514,157.141,532.351,157.37,532.188,157.602z"
         id="path7" /></g></g><g
     id="g9" /><g
     id="g11" /><g
     id="g13" /><g
     id="g15" /><g
     id="g17" /><g
     id="g19" /><g
     id="g21" /><g
     id="g23" /><g
     id="g25" /><g
     id="g27" /><g
     id="g29" /><g
     id="g31" /><g
     id="g33" /><g
     id="g35" /><g
     id="g37" /><path
     style="fill:#00ff00;fill-opacity:1;stroke:#ffffff;stroke-width:2.51505494;stroke-opacity:1"
     d="M 80.48176,521.41723 C 46.482683,509.5474 18.016357,476.98996 7.4730224,437.91582 -5.0886668,391.36157 5.3742002,357.8011 45.573217,315.70645 c 26.285088,-27.52459 32.393488,-38.08251 32.393488,-55.98978 0,-7.2827 -1.051019,-13.24128 -2.335598,-13.24128 -2.161665,0 -1.830865,-11.28902 0.83531,-28.50606 0.607106,-3.92044 3.001564,-9.22506 5.321019,-11.78802 2.319454,-2.56297 3.473638,-5.86304 2.564853,-7.33348 -0.908785,-1.47045 -0.530036,-2.67354 0.841665,-2.67354 2.589277,0 4.837787,-5.40949 6.841518,-16.45941 2.911858,-16.05793 25.496438,-39.11793 60.125358,-61.39103 8.29968,-5.33831 17.67694,-12.07561 20.83835,-14.97179 9.68215,-8.869854 16.26972,-12.262049 31.9778,-16.466625 21.25571,-5.689505 59.79533,-11.439731 65.92641,-9.836416 2.85313,0.74611 6.66791,-0.274405 8.54761,-2.286617 2.95092,-3.158969 4.22326,-3.035653 9.73136,0.943172 3.48513,2.517507 9.59652,4.981992 13.58089,5.476632 3.98435,0.49464 8.74002,2.944895 10.56814,5.445011 2.08329,2.849065 4.92296,3.932038 7.60826,2.901587 2.61981,-1.005312 6.33113,0.278707 9.55231,3.304847 2.89734,2.72191 5.83377,4.836304 6.52541,4.698653 0.69164,-0.137649 5.63616,1.194802 10.98782,2.961006 7.63189,2.51876 10.13924,2.54957 11.62665,0.14288 1.45088,-2.347549 3.16542,-2.389216 7.29831,-0.17736 2.97109,1.59007 6.42551,2.25843 7.67655,1.48524 1.25104,-0.77318 5.15534,-0.0932 8.67624,1.51099 4.93039,2.24643 7.25895,2.20526 10.132,-0.17917 2.97732,-2.47096 5.15015,-2.33682 10.76348,0.66449 12.60399,6.73907 23.00759,9.76498 26.37294,7.67064 5.27822,-3.28476 14.57225,-1.01482 28.85983,7.04859 10.34915,5.8407 15.04684,7.13529 21.08189,5.80977 5.05851,-1.11103 9.24079,-0.51739 11.99785,1.703 7.74878,6.24048 20.58029,12.4737 20.58029,9.9974 0,-1.34344 3.96121,1.06437 8.80269,5.35069 4.84148,4.28632 8.80269,9.60609 8.80269,11.82171 0,2.21562 1.98061,4.15526 4.40135,4.3103 33.20021,2.12645 53.88513,4.50367 55.00888,6.32192 2.24989,3.64041 -6.31369,14.60986 -13.64349,17.47649 -24.87754,9.72944 -27.81422,11.89152 -34.15913,25.14925 -3.46132,7.23241 -5.68234,14.13838 -4.93562,15.3466 1.52257,2.46357 -5.25538,22.12694 -12.29057,35.65595 -1.38418,2.66182 -4.0715,16.809 -5.97185,31.43819 -6.31072,48.58126 -7.1291,49.56787 -31.82749,38.36905 -12.46205,-5.65054 -19.91644,-11.61257 -34.62793,-27.69545 -13.91145,-15.20824 -19.91841,-20.1231 -23.28755,-19.05378 -2.49715,0.79257 -6.30612,-0.0244 -8.46434,-1.81563 -3.26389,-2.70879 -4.45381,-2.53219 -7.07299,1.04973 -1.73189,2.36853 -4.87043,4.30641 -6.97447,4.30641 -2.10407,0 -6.81092,3.91398 -10.45966,8.69772 -4.74516,6.22122 -9.30583,9.14146 -16.01761,10.25618 -16.53945,2.74694 -16.865,3.3635 -5.95062,11.26982 5.696,4.12616 11.28508,7.50211 12.4202,7.50211 1.13512,0 4.63155,3.47296 7.76981,7.71772 5.8217,7.87424 5.44818,16.47784 -0.61433,14.15144 -1.8464,-0.70854 -9.81857,-2.09555 -17.71595,-3.08228 -13.12119,-1.63936 -15.48423,-2.95989 -27.41556,-15.32056 -14.67046,-15.19835 -23.56704,-18.27079 -19.14042,-6.61014 1.4441,3.80402 6.0104,10.2288 10.14737,14.27729 7.58923,7.42693 13.64513,16.53213 10.99554,16.53213 -0.78897,0 -4.22979,-1.83153 -7.64624,-4.07008 -4.86855,-3.19 -6.99083,-3.4235 -9.81473,-1.07989 -2.34099,1.94285 -7.5214,2.4026 -14.79008,1.3126 -7.11009,-1.0662 -13.28171,-0.5566 -16.93452,1.39832 -4.79,2.56352 -6.24576,2.39441 -8.73886,-1.0151 -3.7625,-5.14552 -9.37479,-5.18451 -19.14337,-0.13304 -8.51125,4.40132 -13.43955,2.48032 -6.55383,-2.55465 2.41858,-1.76851 4.3974,-4.32373 4.3974,-5.67831 0,-1.35456 2.87624,-3.77334 6.39166,-5.37508 5.9855,-2.72717 6.34508,-3.91153 5.65887,-18.63785 l -0.73278,-15.72554 -11.31775,-0.0868 c -6.22476,-0.0477 -13.37071,0.87965 -15.87986,2.06082 -2.82191,1.32841 -5.87851,1.05509 -8.01316,-0.71653 -2.58325,-2.1439 -4.81865,-2.13219 -8.88971,0.0466 -2.99126,1.60088 -11.26897,3.23636 -18.39492,3.63441 -19.56103,1.09268 -26.78906,4.76026 -26.78906,13.59308 0,7.68739 -3.58224,10.39155 -13.76584,10.39155 -4.12183,0 -6.27453,1.85367 -7.41094,6.38147 -0.88091,3.50981 -2.98421,6.20517 -4.674,5.98966 -6.58971,-0.84041 -9.35999,0.35993 -9.35999,4.05565 0,2.11835 -1.64889,4.48427 -3.6642,5.25762 -2.5609,0.98271 -3.22354,3.60946 -2.20067,8.72375 1.59247,7.96236 -1.6377,9.65733 -6.72425,3.52842 -2.14274,-2.58186 -2.61283,-7.79959 -1.47528,-16.37485 1.44178,-10.86861 0.74905,-14.15629 -5.07773,-24.09893 -5.55523,-9.47928 -7.79283,-11.31346 -12.66548,-10.38199 -3.76379,0.71949 -5.91821,-0.061 -5.91821,-2.14405 0,-5.79502 -4.65384,-6.41441 -16.92576,-2.25269 -22.070724,7.48474 -59.069152,39.21725 -69.280341,59.41978 -7.939719,15.70848 -12.880163,39.33344 -10.608798,50.73074 4.956728,24.87199 14.864196,47.97428 26.644467,62.12971 17.593182,21.14034 32.192027,30.61086 45.680924,29.63394 8.941408,-0.64758 10.789218,-1.7067 11.479978,-6.58012 0.61407,-4.33236 2.2053,-5.61056 6.26194,-5.03011 11.15758,1.59651 8.35556,20.2268 -3.67277,24.4199 -8.17038,2.84823 -23.161067,3.37714 -29.82052,1.05218 z"
     id="path3020"
     inkscape:connector-curvature="0" /></svg>